<?xml version="1.0" encoding="UTF-8" standalone="no"?>
<!-- Created with Inkscape (http://www.inkscape.org/) -->

<svg
   width="1920"
   height="1200"
   viewBox="0 0 507.99998 317.50002"
   version="1.1"
   id="svg5"
   inkscape:version="1.1.2 (0a00cf5339, 2022-02-04)"
   sodipodi:docname="p.svg"
   xmlns:inkscape="http://www.inkscape.org/namespaces/inkscape"
   xmlns:sodipodi="http://sodipodi.sourceforge.net/DTD/sodipodi-0.dtd"
   xmlns="http://www.w3.org/2000/svg"
   xmlns:svg="http://www.w3.org/2000/svg">
  <sodipodi:namedview
     id="namedview7"
     pagecolor="#ffffff"
     bordercolor="#666666"
     borderopacity="1.0"
     inkscape:pageshadow="2"
     inkscape:pageopacity="0.0"
     inkscape:pagecheckerboard="0"
     inkscape:document-units="px"
     showgrid="false"
     units="px"
     width="800px"
     inkscape:zoom="0.5499273"
     inkscape:cx="782.83074"
     inkscape:cy="342.77258"
     inkscape:window-width="2560"
     inkscape:window-height="1440"
     inkscape:window-x="0"
     inkscape:window-y="0"
     inkscape:window-maximized="0"
     inkscape:current-layer="layer1"
     inkscape:snap-smooth-nodes="true"
     inkscape:snap-midpoints="true"
     inkscape:snap-intersection-paths="true"
     inkscape:object-paths="true"
     inkscape:snap-bbox="true"
     inkscape:snap-bbox-edge-midpoints="true"
     inkscape:snap-bbox-midpoints="true"
     inkscape:bbox-nodes="true"
     inkscape:bbox-paths="true"
     inkscape:snap-object-midpoints="true"
     inkscape:snap-center="true" />
  <defs
     id="defs2" />
  <g
     inkscape:groupmode="layer"
     id="layer2"
     inkscape:label="图层 2">
    <rect
       style="fill:#000000;stroke-width:0.26285"
       id="rect112"
       width="510.83807"
       height="320.26227"
       x="-1.0200609"
       y="-0.89282197" />
  </g>
  <g
     inkscape:label="图层 1"
     inkscape:groupmode="layer"
     id="layer1"
     style="display:inline">
    <text
       xml:space="preserve"
       style="font-style:normal;font-weight:normal;font-size:20.0378px;line-height:1.25;font-family:sans-serif;fill:#ffffff;fill-opacity:1;stroke:none;stroke-width:0.500947"
       x="214.50377"
       y="260.62427"
       id="text7742"><tspan
         sodipodi:role="line"
         id="tspan7740"
         style="fill:#ffffff;stroke-width:0.500947"
         x="214.50377"
         y="260.62427">输入密码</tspan></text>
    <text
       xml:space="preserve"
       style="font-style:normal;font-weight:normal;font-size:22.3688px;line-height:1.25;font-family:sans-serif;fill:#ffffff;fill-opacity:1;stroke:none;stroke-width:0.559221"
       x="58.324875"
       y="267.10342"
       id="text395"><tspan
         sodipodi:role="line"
         id="tspan393"
         style="fill:#ffffff;stroke-width:0.559221"
         x="58.324875"
         y="267.10342">这是锁屏</tspan></text>
    <text
       xml:space="preserve"
       style="font-style:normal;font-weight:normal;font-size:17.3279px;line-height:1.25;font-family:sans-serif;fill:#ffffff;fill-opacity:1;stroke:none;stroke-width:0.433199"
       x="425.80579"
       y="268.40625"
       id="text45545"><tspan
         sodipodi:role="line"
         id="tspan45543"
         style="fill:#ffffff;stroke-width:0.433199"
         x="425.80579"
         y="268.40625">LOCKED</tspan></text>
    <text
       xml:space="preserve"
       style="font-style:normal;font-weight:normal;font-size:17.3279px;line-height:1.25;font-family:sans-serif;fill:#ffffff;fill-opacity:1;stroke:none;stroke-width:0.433199"
       x="321.82095"
       y="300.56827"
       id="text81617"><tspan
         sodipodi:role="line"
         id="tspan81615"
         style="fill:#ffffff;stroke-width:0.433199"
         x="321.82095"
         y="300.56827">PASSWORD NEEDED</tspan></text>
    <g
       aria-label="FBI WARNING"
       id="text106035"
       style="font-size:27.2116px;fill:#ffcc00;stroke:#000000;stroke-width:0.680244"
       transform="translate(0.35307597,-4.6535836)">
      <g
         id="path141260">
        <path
           style="color:#000000;-inkscape-font-specification:'sans-serif Bold';stroke:none;-inkscape-stroke:none"
           d="m 152.42773,19.977015 h 13.80511 v 3.866492 h -8.68964 v 3.693762 h 8.17145 v 3.866491 h -8.17145 v 8.410617 h -5.11547 z"
           id="path141391" />
        <path
           style="color:#000000;-inkscape-font-specification:'sans-serif Bold';fill:#000000;stroke:none;-inkscape-stroke:none"
           d="m 152.08789,19.636719 v 0.339843 20.177735 h 5.79492 v -8.410156 h 8.17188 v -4.546875 h -8.17188 v -3.013672 h 8.68946 v -4.546875 z m 0.67969,0.679687 h 13.125 v 3.1875 h -8.68946 v 4.373047 h 8.17188 v 3.1875 h -8.17188 v 8.410156 h -4.43554 z"
           id="path141393" />
      </g>
      <g
         id="path141262">
        <path
           style="color:#000000;-inkscape-font-specification:'sans-serif Bold';stroke:none;-inkscape-stroke:none"
           d="m 178.9617,27.656851 q 1.20911,0 1.83359,-0.531477 0.62449,-0.531476 0.62449,-1.567856 0,-1.023092 -0.62449,-1.554569 -0.62448,-0.544763 -1.83359,-0.544763 h -2.83011 v 4.198665 z m 0.17273,8.676354 q 1.54128,0 2.31192,-0.651058 0.78393,-0.651059 0.78393,-1.966464 0,-1.28883 -0.77064,-1.926602 -0.77064,-0.651059 -2.32521,-0.651059 h -3.00284 v 5.195183 z m 4.75672,-7.135072 q 1.64757,0.478329 2.55108,1.767159 0.90351,1.288831 0.90351,3.162286 0,2.869973 -1.93989,4.278386 -1.93989,1.408413 -5.89939,1.408413 h -8.49033 V 19.977015 h 7.67983 q 4.13223,0 5.97911,1.24897 1.86017,1.248969 1.86017,3.999361 0,1.448273 -0.67763,2.471365 -0.67763,1.009806 -1.96646,1.501422 z"
           id="path141397" />
        <path
           style="color:#000000;-inkscape-font-specification:'sans-serif Bold';fill:#000000;stroke:none;-inkscape-stroke:none"
           d="m 170.67578,19.636719 v 20.517578 h 8.83008 c 2.67999,0 4.71732,-0.469079 6.09961,-1.472656 1.38214,-1.003471 2.08008,-2.564742 2.08008,-4.554688 0,-1.303645 -0.31804,-2.434773 -0.96485,-3.357422 -0.53509,-0.76329 -1.3028,-1.281837 -2.19531,-1.646484 0.62111,-0.33642 1.24105,-0.678715 1.61523,-1.236328 v -0.002 c 0.49256,-0.74366 0.73438,-1.641596 0.73438,-2.660157 0,-1.910271 -0.67373,-3.384197 -2.00977,-4.28125 -1.32875,-0.898586 -3.38083,-1.30664 -6.16992,-1.30664 z m 0.67969,0.679687 h 7.33984 c 2.72055,0 4.65532,0.424701 5.78906,1.191406 h 0.002 c 1.14418,0.768238 1.70898,1.959883 1.70898,3.716797 0,0.911742 -0.21078,1.663029 -0.62109,2.283203 -0.41039,0.611562 -0.99938,1.065867 -1.80469,1.373047 l -0.94726,0.361328 0.9746,0.283204 c 1.03582,0.300722 1.80928,0.838922 2.36719,1.634765 0.55788,0.795791 0.8418,1.772505 0.8418,2.966797 0,1.836681 -0.5964,3.129495 -1.80078,4.003906 -1.20423,0.874305 -3.09988,1.34375 -5.69922,1.34375 h -8.15039 z m 4.43555,2.800781 v 4.878907 h 3.16992 c 0.8559,0 1.55586,-0.18679 2.05468,-0.611328 0.49943,-0.425038 0.74415,-1.068891 0.74415,-1.828125 0,-0.751264 -0.24579,-1.388369 -0.74415,-1.8125 -0.49807,-0.432828 -1.19924,-0.626954 -2.05468,-0.626954 z m 0.68164,0.681641 h 2.48828 c 0.75499,0 1.27695,0.169246 1.61133,0.460938 h 0.002 v 0.002 c 0.33429,0.284503 0.50586,0.682064 0.50586,1.294922 0,0.622603 -0.17263,1.02695 -0.50586,1.310546 -0.33381,0.284098 -0.85704,0.449219 -1.61328,0.449219 h -2.48828 z m -0.68164,7 v 5.875 h 3.34375 c 1.07541,0 1.9321,-0.226245 2.53125,-0.732422 0.60779,-0.506011 0.90429,-1.283162 0.90429,-2.226562 0,-0.926371 -0.29491,-1.688592 -0.89453,-2.185547 -1.2e-4,-1.03e-4 1.2e-4,-0.0019 0,-0.002 -0.59975,-0.505064 -1.45891,-0.728516 -2.54101,-0.728516 z m 0.68164,0.679688 h 2.66211 c 0.98889,0 1.67783,0.209033 2.10546,0.570312 l 0.002,0.002 c 0.42706,0.353433 0.64843,0.872634 0.64843,1.664063 0,0.809369 -0.22609,1.342969 -0.6621,1.705078 v 0.002 h -0.002 c -0.42837,0.3619 -1.11217,0.570312 -2.09179,0.570312 h -2.66211 z"
           id="path141399" />
      </g>
      <g
         id="path141264">
        <path
           style="color:#000000;-inkscape-font-specification:'sans-serif Bold';stroke:none;-inkscape-stroke:none"
           d="m 191.757,19.977015 h 5.11546 V 39.814377 H 191.757 Z"
           id="path141403" />
        <path
           style="color:#000000;-inkscape-font-specification:'sans-serif Bold';fill:#000000;stroke:none;-inkscape-stroke:none"
           d="m 191.41602,19.636719 v 0.339843 20.177735 h 5.79687 V 19.636719 Z m 0.68164,0.679687 h 4.43554 v 19.158203 h -4.43554 z"
           id="path141405" />
      </g>
      <g
         id="path141266">
        <path
           style="color:#000000;-inkscape-font-specification:'sans-serif Bold';stroke:none;-inkscape-stroke:none"
           d="m 209.66776,19.977015 h 4.90287 l 3.42802,14.416301 3.40145,-14.416301 h 4.92945 l 3.40145,14.416301 3.42802,-14.416301 h 4.86301 l -4.67699,19.837362 h -5.89939 L 223.84489,24.73373 220.284,39.814377 h -5.89939 z"
           id="path141409" />
        <path
           style="color:#000000;-inkscape-font-specification:'sans-serif Bold';fill:#000000;stroke:none;-inkscape-stroke:none"
           d="m 209.23633,19.636719 0.0996,0.419922 4.77929,20.097656 h 6.4375 l 3.29297,-13.947266 3.33203,13.947266 h 6.4375 l 4.83594,-20.517578 h -5.56055 l -3.1582,13.279297 -3.13281,-13.279297 h -5.46875 l -3.13281,13.279297 -3.15821,-13.279297 z m 0.86133,0.679687 h 4.20507 l 3.36524,14.15625 0.66211,-0.002 3.33984,-14.154297 h 4.39063 l 3.33984,14.154297 0.66211,0.002 3.36523,-14.15625 h 4.16602 l -4.51758,19.158203 h -5.36133 l -3.53906,-14.820312 -0.66211,0.002 -3.49805,14.818359 h -5.36132 z"
           id="path141411" />
      </g>
      <g
         id="path141268">
        <path
           style="color:#000000;-inkscape-font-specification:'sans-serif Bold';stroke:none;-inkscape-stroke:none"
           d="m 252.18588,36.200336 h -7.99872 l -1.26226,3.614041 h -5.14204 l 7.34767,-19.837362 h 6.09869 l 7.34766,19.837362 h -5.14203 z m -6.72318,-3.680475 h 5.43435 l -2.71053,-7.892427 z"
           id="path141415" />
        <path
           style="color:#000000;-inkscape-font-specification:'sans-serif Bold';fill:#000000;stroke:none;-inkscape-stroke:none"
           d="m 244.89453,19.636719 -7.59961,20.517578 h 5.8711 l 1.26171,-3.613281 h 7.51758 l 1.24805,3.613281 h 5.87305 L 251.4668,19.636719 Z m 0.47266,0.679687 h 5.625 l 7.0957,19.158203 h -4.41016 l -1.25,-3.615234 h -0.24218 -8.24024 l -1.26172,3.615234 h -4.41211 z m 2.82031,3.265625 -3.20117,9.277344 h 0.47656 5.91016 z m -0.002,2.089844 2.23632,6.507812 h -4.48046 z"
           id="path141417" />
      </g>
      <g
         id="path141270">
        <path
           style="color:#000000;-inkscape-font-specification:'sans-serif Bold';stroke:none;-inkscape-stroke:none"
           d="m 268.47564,28.772952 q 1.60771,0 2.29863,-0.597912 0.70421,-0.597911 0.70421,-1.966463 0,-1.355265 -0.70421,-1.939889 -0.69092,-0.584624 -2.29863,-0.584624 h -2.15248 v 5.088888 z m -2.15248,3.534319 v 7.507106 h -5.11547 V 19.977015 h 7.81271 q 3.91964,0 5.73995,1.315404 1.83359,1.315405 1.83359,4.158804 0,1.966463 -0.95666,3.22872 -0.94337,1.262257 -2.85668,1.860168 1.04966,0.239164 1.87345,1.089527 0.83708,0.837076 1.68744,2.551087 l 2.77696,5.633652 h -5.44763 l -2.41822,-4.929445 q -0.73078,-1.488135 -1.48813,-2.032898 -0.74407,-0.544763 -1.99304,-0.544763 z"
           id="path141421" />
        <path
           style="color:#000000;-inkscape-font-specification:'sans-serif Bold';fill:#000000;stroke:none;-inkscape-stroke:none"
           d="m 260.86719,19.636719 v 20.517578 h 5.79687 v -7.507813 h 1.10742 c 0.7832,0 1.37012,0.170879 1.79297,0.480469 l 0.002,0.002 c 0.42781,0.307729 0.90692,0.94115 1.38086,1.90625 l 2.51171,5.119141 h 6.20704 l -3.01954,-6.125 c -0.57587,-1.160742 -1.14974,-2.037385 -1.74804,-2.636719 l -0.002,-0.002 c -0.40225,-0.414758 -0.9081,-0.592552 -1.39648,-0.808594 1.0027,-0.411771 1.84824,-0.948948 2.4082,-1.697265 0.68913,-0.909266 1.02539,-2.067465 1.02539,-3.433594 0,-1.968073 -0.65875,-3.48893 -1.97461,-4.433594 -1.30747,-0.944815 -3.28831,-1.380859 -5.93945,-1.380859 z m 0.67968,0.679687 h 7.47266 c 2.57504,0 4.42141,0.442898 5.54102,1.251953 h 0.002 c 1.12808,0.809276 1.69141,2.060326 1.69141,3.882813 0,1.255819 -0.30031,2.249695 -0.88672,3.023437 h -0.002 v 0.002 c -0.57832,0.773811 -1.45985,1.355253 -2.68554,1.738282 l -1.20508,0.376953 1.23047,0.279297 c 0.63343,0.144326 1.19503,0.469592 1.70508,0.996093 l 0.002,0.002 0.002,0.002 c 0.5167,0.516693 1.06609,1.33832 1.62305,2.460937 l 2.5332,5.142578 h -4.6875 l -2.32422,-4.740234 c -0.49993,-1.018041 -1.0125,-1.737439 -1.59375,-2.15625 -0.56923,-0.41676 -1.31126,-0.611328 -2.19336,-0.611328 h -1.78906 v 0.339844 7.167968 h -4.43555 z m 4.43555,3.027344 v 5.769531 h 2.49414 c 1.11397,0 1.96021,-0.197611 2.51953,-0.68164 0.56564,-0.481597 0.82227,-1.253128 0.82227,-2.222657 0,-0.961242 -0.25682,-1.726821 -0.82422,-2.199218 -0.55992,-0.473777 -1.40454,-0.666016 -2.51758,-0.666016 z m 0.68164,0.679687 h 1.8125 c 1.03058,0 1.71682,0.200139 2.07813,0.50586 h 0.002 v 0.002 c 0.37009,0.307243 0.58203,0.833136 0.58203,1.677734 0,0.854029 -0.21211,1.391291 -0.58398,1.707032 h -0.002 l -0.002,0.002 c -0.3619,0.313186 -1.04458,0.515625 -2.07422,0.515625 h -1.8125 z"
           id="path141423" />
      </g>
      <g
         id="path141272">
        <path
           style="color:#000000;-inkscape-font-specification:'sans-serif Bold';stroke:none;-inkscape-stroke:none"
           d="m 282.16116,19.977015 h 5.71338 l 7.21479,13.605799 V 19.977015 h 4.84972 v 19.837362 h -5.71337 l -7.21479,-13.6058 v 13.6058 h -4.84973 z"
           id="path141427" />
        <path
           style="color:#000000;-inkscape-font-specification:'sans-serif Bold';fill:#000000;stroke:none;-inkscape-stroke:none"
           d="m 281.82031,19.636719 v 0.339843 20.177735 h 5.53125 V 27.576172 l 6.66992,12.578125 h 6.25782 V 19.636719 H 294.75 v 12.578125 l -6.66992,-12.578125 z m 0.68164,0.679687 h 5.16797 l 7.11914,13.425781 0.64063,-0.160156 V 20.316406 h 4.16992 v 19.158203 h -5.16992 l -7.11914,-13.425781 -0.64063,0.160156 v 13.265625 h -4.16797 z"
           id="path141429" />
      </g>
      <g
         id="path141274">
        <path
           style="color:#000000;-inkscape-font-specification:'sans-serif Bold';stroke:none;-inkscape-stroke:none"
           d="m 304.93494,19.977015 h 5.11546 v 19.837362 h -5.11546 z"
           id="path141433" />
        <path
           style="color:#000000;-inkscape-font-specification:'sans-serif Bold';fill:#000000;stroke:none;-inkscape-stroke:none"
           d="m 304.5957,19.636719 v 0.339843 20.177735 h 5.79492 V 19.636719 Z m 0.67969,0.679687 h 4.43555 v 19.158203 h -4.43555 z"
           id="path141435" />
      </g>
      <g
         id="path141276">
        <path
           style="color:#000000;-inkscape-font-specification:'sans-serif Bold';stroke:none;-inkscape-stroke:none"
           d="m 315.05955,19.977015 h 5.71338 l 7.21479,13.605799 V 19.977015 h 4.84973 v 19.837362 h -5.71338 l -7.21479,-13.6058 v 13.6058 h -4.84973 z"
           id="path141439" />
        <path
           style="color:#000000;-inkscape-font-specification:'sans-serif Bold';fill:#000000;stroke:none;-inkscape-stroke:none"
           d="m 314.71875,19.636719 v 0.339843 20.177735 H 320.25 V 27.576172 l 6.66992,12.578125 h 6.25781 V 19.636719 h -5.52929 v 12.578125 l -6.66992,-12.578125 z m 0.68164,0.679687 h 5.16797 l 7.11914,13.425781 0.64062,-0.160156 V 20.316406 h 4.16993 v 19.158203 h -5.16993 l -7.11914,-13.425781 -0.64062,0.160156 v 13.265625 h -4.16797 z"
           id="path141441" />
      </g>
      <g
         id="path141278">
        <path
           style="color:#000000;-inkscape-font-specification:'sans-serif Bold';stroke:none;-inkscape-stroke:none"
           d="m 355.66437,38.339529 q -1.91332,0.930084 -3.97279,1.395126 -2.05947,0.465042 -4.25181,0.465042 -4.95602,0 -7.85257,-2.763678 -2.89655,-2.776965 -2.89655,-7.520393 0,-4.796576 2.9497,-7.546967 2.94969,-2.750391 8.07844,-2.750391 1.97975,0 3.78677,0.372034 1.82031,0.372033 3.42803,1.102813 v 4.105657 q -1.66087,-0.943371 -3.30845,-1.408413 -1.63429,-0.465042 -3.28186,-0.465042 -3.05599,0 -4.71686,1.714012 -1.64757,1.700725 -1.64757,4.876297 0,3.148999 1.59442,4.863011 1.59443,1.714011 4.53084,1.714011 0.79722,0 1.47485,-0.09301 0.69092,-0.106295 1.23568,-0.318886 v -3.853205 h -3.12242 v -3.428024 h 7.97215 z"
           id="path141445" />
        <path
           style="color:#000000;-inkscape-font-specification:'sans-serif Bold';fill:#000000;stroke:none;-inkscape-stroke:none"
           d="m 347.71875,19.277344 c -3.47996,0 -6.27218,0.941151 -8.31055,2.841797 -2.03859,1.900846 -3.05859,4.52944 -3.05859,7.796875 0,3.231513 1.00109,5.847366 3.00195,7.765625 2.00113,1.909331 4.72066,2.857421 8.08789,2.857421 1.48561,0 2.9279,-0.156917 4.32617,-0.472656 1.39843,-0.315773 2.74823,-0.790586 4.04688,-1.421875 l 0.19141,-0.0918 v -0.21289 -9.88086 h -8.65235 v 4.109375 h 3.12305 v 3.25 c -0.28904,0.09741 -0.58895,0.189016 -0.94727,0.244141 -0.43252,0.05908 -0.90769,0.08984 -1.42382,0.08984 -1.89143,0 -3.28922,-0.539036 -4.28125,-1.605469 -0.9922,-1.066618 -1.50391,-2.588933 -1.50391,-4.630859 0,-2.058225 0.52796,-3.582794 1.55273,-4.640625 1.0347,-1.067805 2.49892,-1.609375 4.47266,-1.609375 1.06638,0 2.12691,0.149378 3.1875,0.451171 h 0.002 c 1.06928,0.301812 2.14631,0.76004 3.23242,1.376954 l 0.50782,0.289062 V 20.875 l -0.19922,-0.0918 c -1.09604,-0.498199 -2.2629,-0.874116 -3.5,-1.126953 -1.22871,-0.25297 -2.51433,-0.378906 -3.85547,-0.378906 z m 0,0.68164 c 1.29853,0 2.5381,0.122159 3.71875,0.365235 1.11928,0.228758 2.16305,0.578791 3.15625,1.013672 v 3.347656 c -0.95837,-0.503518 -1.91731,-0.952207 -2.875,-1.222656 h -0.002 c -1.11784,-0.317902 -2.24331,-0.478516 -3.37305,-0.478516 -2.10091,0 -3.78114,0.600817 -4.96094,1.818359 -1.17199,1.2098 -1.74414,2.937414 -1.74414,5.113282 0,2.156734 0.55185,3.875021 1.68555,5.09375 1.13387,1.218912 2.75551,1.822265 4.7793,1.822265 0.5447,0 1.05192,-0.03125 1.52148,-0.0957 h 0.004 0.002 c 0.48102,-0.074 0.91599,-0.185439 1.30664,-0.337891 l 0.2168,-0.08594 v -4.425781 h -3.1211 v -2.748047 h 7.29102 v 8.960937 c -1.19538,0.564734 -2.42557,1.013373 -3.70703,1.302735 -1.34769,0.304316 -2.74023,0.457031 -4.17774,0.457031 -3.24079,0 -5.75625,-0.894353 -7.61718,-2.669922 -1.8604,-1.784237 -2.79102,-4.181052 -2.79102,-7.273437 0,-3.127994 0.94746,-5.532491 2.8418,-7.298829 1.89454,-1.766538 4.48734,-2.658203 7.8457,-2.658203 z"
           id="path141447" />
      </g>
    </g>
  </g>
</svg>
